<svg width="266" height="35" viewBox="0 0 266 35" fill="none" xmlns="http://www.w3.org/2000/svg">
<path d="M228.12 34.26C227.9 34.68 227.5 34.89 226.92 34.89C226.34 34.89 226.05 34.77 226.05 34.53C226.05 34.43 226.08 34.34 226.14 34.26L240.45 10.98C240.61 10.68 241 10.53 241.62 10.53C242.24 10.53 242.55 10.61 242.55 10.77C242.55 10.79 237.74 18.62 228.12 34.26ZM242.633 30.3C242.493 30.46 242.353 30.54 242.213 30.54C241.973 30.54 241.803 30.39 241.703 30.09C241.603 29.79 241.553 29.51 241.553 29.25C241.553 28.75 241.743 28.36 242.123 28.08C243.083 27.32 244.913 26.12 247.613 24.48L249.053 23.61C249.193 23.53 249.263 23.44 249.263 23.34C249.263 23.16 249.173 23.02 248.993 22.92C247.673 21.84 245.743 20.5 243.203 18.9L241.913 18.12C241.533 17.82 241.343 17.4 241.343 16.86C241.343 16.3 241.483 16.02 241.763 16.02L242.153 16.17C244.733 17.71 247.423 19.54 250.223 21.66L251.603 22.71C251.983 22.97 252.173 23.26 252.173 23.58C252.173 23.9 252.013 24.19 251.693 24.45C246.013 27.95 242.993 29.9 242.633 30.3Z" fill="#FCFBFE"/>
<path d="M46.5166 22.0059C44.4561 16.0195 43.3184 12.6553 43.1035 11.9131C43.1035 11.9131 41.917 15.2773 39.5439 22.0059H46.5166ZM49.8711 31L47.3369 24.1299H38.6943L36.0723 31H33.4941L41.8145 9.29102H44.4072L52.4785 31H49.8711ZM54.6172 31V14.9307H56.668L56.9756 17.2305C57.6104 16.4395 58.4014 15.8047 59.3486 15.3262C60.3057 14.8379 61.3359 14.5938 62.4395 14.5938C64.2949 14.5938 65.667 15.1162 66.5557 16.1611C67.4443 17.1963 67.8887 18.793 67.8887 20.9512V31H65.4424C65.4424 24.5547 65.4375 21.1025 65.4277 20.6436C65.3887 19.2764 65.1104 18.2754 64.5928 17.6406C64.085 17.0059 63.2305 16.6885 62.0293 16.6885C60.7695 16.6885 59.7197 16.9912 58.8799 17.5967C58.04 18.2021 57.4932 18.9883 57.2393 19.9551C57.1416 20.6094 57.0928 21.3613 57.0928 22.2109V31H54.6172ZM71.9609 31V14.9307H74.0117L74.3193 17.2305C74.9541 16.4395 75.7451 15.8047 76.6924 15.3262C77.6494 14.8379 78.6797 14.5938 79.7832 14.5938C81.6387 14.5938 83.0107 15.1162 83.8994 16.1611C84.7881 17.1963 85.2324 18.793 85.2324 20.9512V31H82.7861C82.7861 24.5547 82.7812 21.1025 82.7715 20.6436C82.7324 19.2764 82.4541 18.2754 81.9365 17.6406C81.4287 17.0059 80.5742 16.6885 79.373 16.6885C78.1133 16.6885 77.0635 16.9912 76.2236 17.5967C75.3838 18.2021 74.8369 18.9883 74.583 19.9551C74.4854 20.6094 74.4365 21.3613 74.4365 22.2109V31H71.9609ZM93.9482 29.3594C95.1104 29.3594 96.1309 29.042 97.0098 28.4072C97.8984 27.7627 98.4697 26.8984 98.7236 25.8145V23.1045C98.6748 23.1045 98.377 23.1289 97.8301 23.1777C97.293 23.2266 96.9414 23.2559 96.7754 23.2656C94.6562 23.4512 93.1768 23.7979 92.3369 24.3057C91.5068 24.8135 91.0918 25.6289 91.0918 26.752C91.0918 27.6113 91.3457 28.2607 91.8535 28.7002C92.3613 29.1396 93.0596 29.3594 93.9482 29.3594ZM99.2656 31C99.1191 30.375 98.9775 29.7012 98.8408 28.9785C97.9521 29.8672 97.1172 30.4824 96.3359 30.8242C95.5547 31.166 94.6367 31.3369 93.582 31.3369C92.0781 31.3369 90.8672 30.9463 89.9492 30.165C89.041 29.374 88.5869 28.2412 88.5869 26.7666C88.5869 25.126 89.207 23.9102 90.4473 23.1191C91.6973 22.3281 93.4941 21.835 95.8379 21.6396C96.1602 21.6104 96.6436 21.5713 97.2881 21.5225C97.9424 21.4639 98.4307 21.4199 98.7529 21.3906V19.9697C98.7529 18.8369 98.4893 17.9971 97.9619 17.4502C97.4346 16.9033 96.6045 16.6299 95.4717 16.6299C93.8896 16.6299 92.293 17.0205 90.6816 17.8018C90.6328 17.6846 90.5059 17.3477 90.3008 16.791C90.0957 16.2246 89.9883 15.9316 89.9785 15.9121C90.6914 15.5117 91.5361 15.1943 92.5127 14.96C93.499 14.7158 94.5 14.5938 95.5156 14.5938C97.5176 14.5938 98.958 15.0332 99.8369 15.9121C100.726 16.7812 101.17 18.2656 101.17 20.3652V31H99.2656ZM112.054 31V29.0078L123.831 11.5908H112.479V9.33496H127.068V11.2246L115.218 28.7441H127.171L127.083 31H112.054ZM129.676 25.6387V14.9307H132.137V25.668C132.137 26.3711 132.234 26.9668 132.43 27.4551C132.635 27.9434 132.923 28.3242 133.294 28.5977C133.675 28.8613 134.1 29.0518 134.568 29.1689C135.047 29.2861 135.594 29.3447 136.209 29.3447C137.479 29.3447 138.465 29.0664 139.168 28.5098C139.881 27.9531 140.237 27.0059 140.237 25.668V14.9307H142.698V25.6387C142.698 26.459 142.581 27.1963 142.347 27.8506C142.112 28.5049 141.795 29.0518 141.395 29.4912C141.004 29.9209 140.53 30.2773 139.974 30.5605C139.417 30.8438 138.826 31.0488 138.201 31.1758C137.586 31.3027 136.922 31.3662 136.209 31.3662C135.506 31.3662 134.842 31.3027 134.217 31.1758C133.592 31.0488 132.996 30.8438 132.43 30.5605C131.873 30.2676 131.39 29.9062 130.979 29.4766C130.579 29.0371 130.262 28.4902 130.027 27.8359C129.793 27.1816 129.676 26.4492 129.676 25.6387ZM153.655 16.6299C152.103 16.6299 150.911 17.167 150.081 18.2412C149.261 19.3057 148.851 20.873 148.851 22.9434C148.851 27.1816 150.447 29.3008 153.641 29.3008C154.432 29.3008 155.125 29.1396 155.721 28.8174C156.326 28.4854 156.8 28.0264 157.142 27.4404C157.493 26.8447 157.752 26.1758 157.918 25.4336C158.094 24.6914 158.182 23.8662 158.182 22.958C158.182 21.7275 158.035 20.6533 157.742 19.7354C157.459 18.8174 156.971 18.0703 156.277 17.4941C155.584 16.918 154.71 16.6299 153.655 16.6299ZM153.904 14.5938C155.33 14.5938 156.561 14.9551 157.596 15.6777C158.631 16.4004 159.407 17.3818 159.925 18.6221C160.442 19.8623 160.701 21.2832 160.701 22.8848C160.701 24.5449 160.442 26.0049 159.925 27.2646C159.417 28.5244 158.641 29.5205 157.596 30.2529C156.561 30.9756 155.32 31.3369 153.875 31.3369C152.811 31.3369 151.839 31.1074 150.96 30.6484C150.081 30.1895 149.349 29.5645 148.763 28.7734L148.514 31H146.419V8.69043L148.865 8.54395V13.8613C148.865 15.1699 148.846 16.293 148.807 17.2305C149.373 16.4199 150.105 15.7803 151.004 15.3115C151.912 14.833 152.879 14.5938 153.904 14.5938ZM168.567 29.3594C169.729 29.3594 170.75 29.042 171.629 28.4072C172.518 27.7627 173.089 26.8984 173.343 25.8145V23.1045C173.294 23.1045 172.996 23.1289 172.449 23.1777C171.912 23.2266 171.561 23.2559 171.395 23.2656C169.275 23.4512 167.796 23.7979 166.956 24.3057C166.126 24.8135 165.711 25.6289 165.711 26.752C165.711 27.6113 165.965 28.2607 166.473 28.7002C166.98 29.1396 167.679 29.3594 168.567 29.3594ZM173.885 31C173.738 30.375 173.597 29.7012 173.46 28.9785C172.571 29.8672 171.736 30.4824 170.955 30.8242C170.174 31.166 169.256 31.3369 168.201 31.3369C166.697 31.3369 165.486 30.9463 164.568 30.165C163.66 29.374 163.206 28.2412 163.206 26.7666C163.206 25.126 163.826 23.9102 165.066 23.1191C166.316 22.3281 168.113 21.835 170.457 21.6396C170.779 21.6104 171.263 21.5713 171.907 21.5225C172.562 21.4639 173.05 21.4199 173.372 21.3906V19.9697C173.372 18.8369 173.108 17.9971 172.581 17.4502C172.054 16.9033 171.224 16.6299 170.091 16.6299C168.509 16.6299 166.912 17.0205 165.301 17.8018C165.252 17.6846 165.125 17.3477 164.92 16.791C164.715 16.2246 164.607 15.9316 164.598 15.9121C165.311 15.5117 166.155 15.1943 167.132 14.96C168.118 14.7158 169.119 14.5938 170.135 14.5938C172.137 14.5938 173.577 15.0332 174.456 15.9121C175.345 16.7812 175.789 18.2656 175.789 20.3652V31H173.885ZM180.037 31V8.69043L182.469 8.54395V20.2188V22.2695C182.527 22.2109 182.615 22.1133 182.732 21.9766C182.85 21.8398 182.942 21.7373 183.011 21.6689C183.86 20.7412 186.058 18.4951 189.603 14.9307H192.708L186.028 21.6982L193.177 31H190.13L184.256 23.0898L182.469 24.6279V31H180.037ZM206.097 31V21.2881C206.097 19.6768 205.838 18.5049 205.32 17.7725C204.812 17.04 203.919 16.6738 202.64 16.6738C201.409 16.6738 200.369 16.9814 199.52 17.5967C198.68 18.2119 198.133 19.0078 197.879 19.9844C197.791 20.7168 197.747 21.5322 197.747 22.4307V31H195.301V8.69043L197.747 8.54395V15.0771C197.747 15.6338 197.728 16.3223 197.688 17.1426C199.065 15.4434 200.892 14.5938 203.167 14.5938C206.751 14.5938 208.543 16.6982 208.543 20.9072V31H206.097ZM216.204 29.3594C217.366 29.3594 218.387 29.042 219.266 28.4072C220.154 27.7627 220.726 26.8984 220.979 25.8145V23.1045C220.931 23.1045 220.633 23.1289 220.086 23.1777C219.549 23.2266 219.197 23.2559 219.031 23.2656C216.912 23.4512 215.433 23.7979 214.593 24.3057C213.763 24.8135 213.348 25.6289 213.348 26.752C213.348 27.6113 213.602 28.2607 214.109 28.7002C214.617 29.1396 215.315 29.3594 216.204 29.3594ZM221.521 31C221.375 30.375 221.233 29.7012 221.097 28.9785C220.208 29.8672 219.373 30.4824 218.592 30.8242C217.811 31.166 216.893 31.3369 215.838 31.3369C214.334 31.3369 213.123 30.9463 212.205 30.165C211.297 29.374 210.843 28.2412 210.843 26.7666C210.843 25.126 211.463 23.9102 212.703 23.1191C213.953 22.3281 215.75 21.835 218.094 21.6396C218.416 21.6104 218.899 21.5713 219.544 21.5225C220.198 21.4639 220.687 21.4199 221.009 21.3906V19.9697C221.009 18.8369 220.745 17.9971 220.218 17.4502C219.69 16.9033 218.86 16.6299 217.728 16.6299C216.146 16.6299 214.549 17.0205 212.938 17.8018C212.889 17.6846 212.762 17.3477 212.557 16.791C212.352 16.2246 212.244 15.9316 212.234 15.9121C212.947 15.5117 213.792 15.1943 214.769 14.96C215.755 14.7158 216.756 14.5938 217.771 14.5938C219.773 14.5938 221.214 15.0332 222.093 15.9121C222.981 16.7812 223.426 18.2656 223.426 20.3652V31H221.521Z" fill="#FCFBFE"/>
<path d="M29.0465 30.48C28.9065 30.48 28.7665 30.4 28.6265 30.24C28.3465 29.92 26.0465 28.42 21.7265 25.74L19.5665 24.39C19.2465 24.13 19.0865 23.89 19.0865 23.67C19.0865 23.29 19.2765 22.95 19.6565 22.65C22.9565 20.11 26.1065 17.93 29.1065 16.11C29.2465 16.01 29.3765 15.96 29.4965 15.96C29.7765 15.96 29.9165 16.24 29.9165 16.8C29.9165 17.34 29.7265 17.76 29.3465 18.06C26.1065 20.04 23.7465 21.64 22.2665 22.86C22.0865 22.98 21.9965 23.11 21.9965 23.25C21.9965 23.37 22.0665 23.47 22.2065 23.55C25.9465 25.79 28.2865 27.3 29.2265 28.08C29.5465 28.26 29.7065 28.56 29.7065 28.98C29.7065 29.98 29.4865 30.48 29.0465 30.48Z" fill="#FCFBFE"/>
</svg>
